<svg width="718" height="703" viewBox="0 0 718 703" fill="none" xmlns="http://www.w3.org/2000/svg">
<path fill-rule="evenodd" clip-rule="evenodd" d="M659.473 259.27C675.733 340.348 750.364 436.817 700.231 499.014C645.351 567.099 529.071 475.718 453.521 514.778C383.955 550.745 384.396 688.856 307.985 701.809C236.886 713.861 188.426 621.005 134.538 568.849C85.2008 521.098 24.7171 478.856 6.75838 410.263C-10.8137 343.148 10.8881 270.972 40.4417 209.456C65.8557 156.557 117.209 128.727 160.063 91.1569C198.327 57.6117 229.404 8.48975 278.402 0.837304C326.772 -6.71708 366.51 42.7442 414.879 51.3601C481.267 63.1859 559.252 15.258 612.247 60.3052C663.3 103.701 645.781 190.999 659.473 259.27Z" fill="url(#paint0_linear_41_31)"/>
<defs>
<linearGradient id="paint0_linear_41_31" x1="707.203" y1="675.131" x2="164.408" y2="-94.7612" gradientUnits="userSpaceOnUse">
<stop offset="0.285516" stop-color="#CC9ADD"/>
<stop offset="0.865118" stop-color="#006BF8"/>
</linearGradient>
</defs>
</svg>
