<svg width="383" height="711" viewBox="0 0 383 711" fill="none" xmlns="http://www.w3.org/2000/svg">
<path fill-rule="evenodd" clip-rule="evenodd" d="M495.85 114.779C562.83 163.272 683.12 183.44 688.533 263.142C694.458 350.391 547.043 362.233 518.087 442.202C491.424 515.838 585.508 616.947 538.197 678.331C494.174 735.447 395.554 700.166 320.579 698.454C251.936 696.886 178.849 706.93 119.097 668.757C60.6317 631.407 27.5681 563.679 7.50615 498.447C-9.74564 442.352 9.06801 387.056 15.0287 330.377C20.3506 279.771 9.82185 222.605 40.6038 183.722C70.9913 145.338 133.747 154.679 175.111 128.169C231.885 91.7826 256.609 3.64938 326.102 0.748269C393.048 -2.0465 439.449 73.9456 495.85 114.779Z" fill="url(#paint0_linear_1_7)"/>
<defs>
<linearGradient id="paint0_linear_1_7" x1="813.214" y1="387.724" x2="-107.996" y2="190.917" gradientUnits="userSpaceOnUse">
<stop offset="0.285516" stop-color="#CC9ADD"/>
<stop offset="0.865118" stop-color="#006BF8"/>
</linearGradient>
</defs>
</svg>
