<svg width="624" height="671" viewBox="0 0 624 671" fill="none" xmlns="http://www.w3.org/2000/svg">
<path fill-rule="evenodd" clip-rule="evenodd" d="M312.011 0.00364034C377.912 0.544041 423.878 61.1532 476.134 101.31C526.686 140.159 587.822 170.684 611.264 229.973C635.374 290.952 618.69 358.071 602.806 421.691C585.75 490.004 570.434 563.428 516.661 608.883C461.11 655.842 383.922 678.465 312.011 667.507C244.434 657.208 196.539 601.02 148.16 552.727C107.075 511.715 78.2717 463.876 54.8184 410.773C28.5471 351.289 -13.8005 289.685 4.41677 227.262C22.7244 164.53 93.361 137.435 145.921 98.6026C199.004 59.3838 246.014 -0.537546 312.011 0.00364034Z" fill="url(#paint0_linear_41_29)"/>
<defs>
<linearGradient id="paint0_linear_41_29" x1="311.691" y1="0" x2="311.691" y2="670.23" gradientUnits="userSpaceOnUse">
<stop stop-color="#62D2E7"/>
<stop offset="1" stop-color="#13B9F1"/>
</linearGradient>
</defs>
</svg>
